<svg width="36.000000" height="36.000000" viewBox="0 0 36 36" fill="none" xmlns="http://www.w3.org/2000/svg" xmlns:xlink="http://www.w3.org/1999/xlink">
	<desc>
			Created with Pixso.
	</desc>
	<defs>
		<clipPath id="clip5_39">
			<rect id="personOption" width="36.000000" height="36.000000" fill="white" fill-opacity="0"/>
		</clipPath>
	</defs>
	<g clip-path="url(#clip5_39)">
		<path id="Vector" d="M10.3203 25.4771C8.09863 23.9106 6.43262 21.6768 5.56543 19.1001C4.69824 16.5239 4.67383 13.7378 5.49512 11.1465C6.31738 8.55469 7.94238 6.29248 10.1367 4.68652C12.3301 3.08105 14.9785 2.21533 17.6973 2.21533C20.416 2.21533 23.0645 3.08105 25.2578 4.68652C27.4512 6.29248 29.0771 8.55469 29.8994 11.1465C30.7207 13.7378 30.6963 16.5239 29.8291 19.1001C28.9619 21.6768 27.2959 23.9106 25.0742 25.4771L28.4072 33.0938C28.4609 33.2158 28.4834 33.3491 28.4727 33.4814C28.4609 33.6143 28.417 33.7422 28.3438 33.8535C28.2715 33.9648 28.1719 34.0562 28.0547 34.1196C27.9375 34.1826 27.8066 34.2158 27.6729 34.2153L7.71973 34.2153C7.58691 34.2153 7.45605 34.1826 7.33887 34.1196C7.22168 34.0566 7.12207 33.9653 7.0498 33.854C6.97656 33.7427 6.93262 33.6152 6.92188 33.4829C6.91016 33.3501 6.93262 33.2173 6.98535 33.0952L10.3184 25.4771L10.3203 25.4771ZM11.4863 16.5664C11.835 17.9497 12.6348 19.1772 13.7598 20.0542C14.8848 20.9307 16.2705 21.4072 17.6963 21.4072C19.123 21.4072 20.5088 20.9307 21.6338 20.0542C22.7588 19.1772 23.5586 17.9497 23.9062 16.5664L20.8018 15.79C20.6299 16.4839 20.2305 17.0996 19.668 17.5396C19.1045 17.98 18.4111 18.2188 17.6963 18.2188C16.9814 18.2188 16.2881 17.98 15.7256 17.5396C15.1621 17.0996 14.7627 16.4839 14.5908 15.79L11.4863 16.5664Z" fill="#03053D" fill-opacity="1.000000" fill-rule="nonzero"/>
	</g>
</svg>
