<svg width="14.000000" height="18.000000" viewBox="0 0 14 18" fill="none" xmlns="http://www.w3.org/2000/svg" xmlns:xlink="http://www.w3.org/1999/xlink">
	<desc>
			Created with Pixso.
	</desc>
	<defs/>
	<path id="Vector" d="M14 18L12.25 18L12.25 16.2856C12.25 15.6035 11.9736 14.9497 11.4814 14.4673C10.9893 13.9854 10.3213 13.7144 9.625 13.7144L4.375 13.7144C3.67871 13.7144 3.01074 13.9854 2.51855 14.4673C2.02637 14.9497 1.75 15.6035 1.75 16.2856L1.75 18L0 18L0 16.2856C0 15.1489 0.460938 14.0591 1.28125 13.2554C2.10156 12.4517 3.21484 12 4.375 12L9.625 12C10.7852 12 11.8984 12.4517 12.7188 13.2554C13.5391 14.0591 14 15.1489 14 16.2856L14 18ZM7 10.2856C6.31055 10.2856 5.62793 10.1528 4.99121 9.89404C4.35352 9.63574 3.77539 9.25684 3.28809 8.7793C2.7998 8.30176 2.41309 7.73486 2.14941 7.11084C1.88574 6.48682 1.75 5.81836 1.75 5.14307C1.75 4.46729 1.88574 3.79883 2.14941 3.1748C2.41309 2.55078 2.7998 1.98389 3.28809 1.50635C3.77539 1.02881 4.35352 0.649902 4.99121 0.391602C5.62793 0.132812 6.31055 0 7 0C8.39258 0 9.72754 0.541992 10.7119 1.50635C11.6973 2.4707 12.25 3.77881 12.25 5.14307C12.25 6.50684 11.6973 7.81494 10.7119 8.7793C9.72754 9.74365 8.39258 10.2856 7 10.2856ZM7 8.57129C7.92871 8.57129 8.81836 8.21045 9.47461 7.56738C10.1309 6.92432 10.5 6.05225 10.5 5.14307C10.5 4.2334 10.1309 3.36133 9.47461 2.71826C8.81836 2.07568 7.92871 1.71436 7 1.71436C6.07129 1.71436 5.18164 2.07568 4.52539 2.71826C3.86914 3.36133 3.5 4.2334 3.5 5.14307C3.5 6.05225 3.86914 6.92432 4.52539 7.56738C5.18164 8.21045 6.07129 8.57129 7 8.57129Z" fill="#03053D" fill-opacity="1.000000" fill-rule="nonzero"/>
</svg>
