<svg width="44.000000" height="44.000000" viewBox="0 0 44 44" fill="none" xmlns="http://www.w3.org/2000/svg" xmlns:xlink="http://www.w3.org/1999/xlink">
	<desc>
			Created with Pixso.
	</desc>
	<defs/>
	<path id="Vector" d="M8.25 7.11328L16.376 14.7031L13.875 17.3799L10.084 13.8418L10.084 29.3335C10.084 31.3501 11.7266 33 13.75 33L23.834 33L23.834 36.6665L13.75 36.6665C9.7002 36.6665 6.41699 33.3848 6.41699 29.3335L6.41699 13.8418L2.62598 17.3799L0.125 14.7031L8.25 7.11328ZM30.25 11L20.167 11L20.167 7.3335L30.25 7.3335C34.2998 7.3335 37.584 10.6147 37.584 14.6665L37.584 30.1582L41.375 26.6201L43.876 29.2964L35.75 36.8867L27.625 29.2964L30.126 26.6201L33.917 30.1582L33.917 14.6665C33.917 12.6499 32.2744 11 30.25 11Z" fill="#536471" fill-opacity="1.000000" fill-rule="nonzero"/>
</svg>
