<svg width="18.000000" height="18.000000" viewBox="0 0 18 18" fill="none" xmlns="http://www.w3.org/2000/svg" xmlns:xlink="http://www.w3.org/1999/xlink">
	<desc>
			Created with Pixso.
	</desc>
	<defs/>
	<path id="Vector" d="M7.6665 1.80396C4.42871 1.80396 1.80371 4.42847 1.80371 7.6665C1.80371 10.9045 4.42871 13.5291 7.6665 13.5291C9.28564 13.5291 10.75 12.8743 11.812 11.8118C12.8745 10.7502 13.5293 9.2854 13.5293 7.6665C13.5293 4.42847 10.9043 1.80396 7.6665 1.80396ZM0 7.6665C0 3.43286 3.43262 0 7.6665 0C11.9004 0 15.333 3.43286 15.333 7.6665C15.333 9.45776 14.7178 11.1074 13.688 12.4126L18 16.7246L16.7246 18L12.4126 13.6877C11.1074 14.7178 9.45752 15.333 7.6665 15.333C3.43262 15.333 0 11.9001 0 7.6665Z" fill="#536471" fill-opacity="1.000000" fill-rule="nonzero"/>
</svg>
