<svg width="24.000000" height="24.000000" viewBox="0 0 24 24" fill="none" xmlns="http://www.w3.org/2000/svg" xmlns:xlink="http://www.w3.org/1999/xlink">
	<desc>
			Created with Pixso.
	</desc>
	<defs/>
	<path id="Vector" d="M12 2.59009L17.7002 8.29004L16.29 9.71021L13 6.41016L13 16L11 16L11 6.41016L7.7002 9.71021L6.29004 8.29004L12 2.59009ZM21 15L20.98 18.51C20.98 19.8901 19.8599 21 18.48 21L5.5 21C4.10986 21 3 19.8801 3 18.5L3 15L5 15L5 18.5C5 18.78 5.22021 19 5.5 19L18.48 19C18.7598 19 18.98 18.78 18.98 18.5L19 15L21 15Z" fill="#536471" fill-opacity="1.000000" fill-rule="nonzero"/>
</svg>
