<svg width="68.000000" height="68.000000" viewBox="0 0 68 68" fill="none" xmlns="http://www.w3.org/2000/svg" xmlns:xlink="http://www.w3.org/1999/xlink">
	<desc>
			Created with Pixso.
	</desc>
	<defs/>
	<path id="Vector" d="M68 34C67.9348 31.6624 67.2219 29.3862 65.9375 27.4287C64.6565 25.4746 62.8545 23.9114 60.7339 22.9199C61.5408 20.7234 61.7109 18.3462 61.2405 16.0557C60.7666 13.7615 59.6592 11.6482 58.0491 9.95093C56.3481 8.34082 54.2385 7.23706 51.9443 6.75952C49.6538 6.28906 47.2766 6.45923 45.0801 7.26611C44.0923 5.14209 42.5325 3.33643 40.575 2.05542C38.6172 0.774414 36.3413 0.0578613 34 0C31.6624 0.0615234 29.3936 0.770752 27.4395 2.05542C25.4856 3.33984 23.9331 5.14551 22.9526 7.26611C20.7524 6.45923 18.3679 6.28174 16.0701 6.75952C13.7722 7.22998 11.6553 8.33716 9.95459 9.95093C8.34448 11.6519 7.24438 13.7686 6.77759 16.0591C6.30713 18.3496 6.48804 20.7271 7.29858 22.9199C5.17456 23.9114 3.36523 25.4709 2.07715 27.425C0.788818 29.3792 0.0688477 31.6587 0 34C0.0722656 36.3413 0.788818 38.6172 2.07715 40.575C3.36523 42.5291 5.17456 44.0923 7.29858 45.0801C6.48804 47.2729 6.30713 49.6504 6.77759 51.9409C7.24805 54.2351 8.34448 56.3481 9.95093 58.0491C11.6519 59.6521 13.7649 60.752 16.0557 61.2261C18.3462 61.7036 20.7234 61.53 22.9199 60.7339C23.9114 62.8545 25.4709 64.6565 27.4287 65.9409C29.3828 67.2219 31.6624 67.9348 34 68C36.3413 67.9421 38.6172 67.2292 40.575 65.9482C42.5325 64.6672 44.0923 62.8579 45.0801 60.7375C47.2656 61.6023 49.6611 61.8086 51.9661 61.3311C54.2676 60.8533 56.3809 59.7134 58.0454 58.0491C59.71 56.3845 60.8533 54.2712 61.3311 51.9661C61.8086 49.6611 61.6023 47.2656 60.7339 45.0801C62.8545 44.0886 64.6565 42.5291 65.9409 40.5713C67.2219 38.6172 67.9348 36.3376 68 34ZM29.1584 47.9314L16.7502 35.5271L21.4292 30.8157L28.9268 38.3132L44.8484 20.9658L49.7227 25.4746L29.1584 47.9314Z" fill="#1D9BF0" fill-opacity="1.000000" fill-rule="nonzero"/>
</svg>
